<?xml version="1.0" encoding="UTF-8"?>
<svg id="Layer_2" data-name="Layer 2" xmlns="http://www.w3.org/2000/svg" viewBox="0 0 443.14 443.14">
  <defs>
    <style>
      .cls-1 {
        fill: #fff;
      }

      .cls-1, .cls-2 {
        stroke-width: 0px;
      }

      .cls-2 {
        fill: #231f20;
      }
    </style>
  </defs>
  <g id="_ëîé_1" data-name="‘ëîé_1">
    <g>
      <path class="cls-1" d="m293.48,401.61h-144c-54.39,0-98.64-44.25-98.64-98.64v-144c0-54.39,44.25-98.64,98.64-98.64h144c54.39,0,98.64,44.25,98.64,98.64v144c0,54.39-44.25,98.64-98.64,98.64ZM149.48,94.66c-35.46,0-64.31,28.85-64.31,64.31v144c0,35.46,28.85,64.31,64.31,64.31h144c35.46,0,64.31-28.85,64.31-64.31v-144c0-35.46-28.85-64.31-64.31-64.31h-144Z"/>
      <path class="cls-1" d="m221.48,317.34c-47.63,0-86.37-38.75-86.37-86.37s38.75-86.37,86.37-86.37,86.37,38.75,86.37,86.37-38.75,86.37-86.37,86.37Zm0-144.06c-31.81,0-57.68,25.88-57.68,57.68s25.88,57.68,57.68,57.68,57.68-25.88,57.68-57.68-25.88-57.68-57.68-57.68Z"/>
      <circle class="cls-1" cx="309.55" cy="140.3" r="20.13"/>
      <g>
        <rect class="cls-2" width="443.14" height="443.14" rx="97.84" ry="97.84"/>
        <path class="cls-1" d="m292.95,390.75h-142.77c-53.93,0-97.8-43.87-97.8-97.8v-142.77c0-53.93,43.87-97.8,97.8-97.8h142.77c53.93,0,97.8,43.87,97.8,97.8v142.77c0,53.93-43.87,97.8-97.8,97.8ZM150.18,86.43c-35.16,0-63.76,28.6-63.76,63.76v142.77c0,35.16,28.6,63.76,63.76,63.76h142.77c35.16,0,63.76-28.6,63.76-63.76v-142.77c0-35.16-28.6-63.76-63.76-63.76h-142.77Z"/>
        <path class="cls-1" d="m221.57,307.21c-47.22,0-85.64-38.42-85.64-85.64s38.42-85.64,85.64-85.64,85.64,38.42,85.64,85.64-38.42,85.64-85.64,85.64Zm0-142.83c-31.54,0-57.19,25.66-57.19,57.19s25.66,57.19,57.19,57.19,57.19-25.66,57.19-57.19-25.66-57.19-57.19-57.19Z"/>
        <circle class="cls-1" cx="308.89" cy="131.68" r="19.96" transform="translate(-26.88 128.23) rotate(-22.5)"/>
      </g>
    </g>
  </g>
</svg>