<?xml version="1.0" encoding="UTF-8"?>
<svg id="Layer_2" data-name="Layer 2" xmlns="http://www.w3.org/2000/svg" viewBox="0 0 416 416">
  <defs>
    <style>
      .cls-1 {
        stroke-width: 0px;
      }
    </style>
  </defs>
  <g id="Layer_1-2" data-name="Layer 1">
    <path class="cls-1" d="m411.31,388.69l-127.5-127.5c22.59-27.59,36.18-62.82,36.18-101.18C320,71.78,248.22,0,160,0S0,71.78,0,160s71.78,160,160,160c38.36,0,73.59-13.59,101.18-36.18l127.5,127.5c3.13,3.12,7.22,4.68,11.31,4.68s8.18-1.56,11.31-4.69c6.25-6.25,6.25-16.38,0-22.62h0ZM32,160c0-70.58,57.42-128,128-128s128,57.42,128,128-57.42,128-128,128S32,230.58,32,160h0Z"/>
  </g>
</svg>