<?xml version="1.0" encoding="UTF-8"?>
<svg id="Layer_2" data-name="Layer 2" xmlns="http://www.w3.org/2000/svg" viewBox="0 0 449.62 449.62">
  <defs>
    <style>
      .cls-1, .cls-2 {
        stroke-width: 0px;
      }

      .cls-2 {
        fill: #fff;
      }
    </style>
  </defs>
  <g id="_ëîé_1" data-name="‘ëîé_1">
    <g>
      <rect class="cls-1" width="449.62" height="449.62" rx="99.27" ry="99.27"/>
      <path class="cls-2" d="m221.15,184.41c-74.65-1.89-125.2-62.83-125.2-62.83,0,0-25.75,48.9,18.19,80.43,0,0-12.16,1.06-25.69-6.73,0,0-5.26,45.35,46.47,59.76,0,0-3.43,3.78-25.28,2.01,0,0,10.69,40.1,55.33,41.34,0,0-27.46,29.59-87.34,26.4,0,0,94.96,64.31,195.69-5.72,34.18-23.77,74.85-89.06,69.24-148.83,0,0,18.43-11.81,29.41-31.06,0,0-7.92,3.25-16.13,5.6-6.8,1.94-13.81,3.04-16.7,3.14,0,0,22.56-15.59,25.04-33.07,0,0-24.63,13.39-37.5,14.37l-.44.03c-11.15-11.82-26.96-19.2-44.49-19.2-33.77,0-61.15,27.38-61.15,61.15,0,4.54.5,8.97,1.44,13.23h-.88Z"/>
    </g>
  </g>
</svg>